<?xml version="1.0" standalone="no"?>
<!DOCTYPE svg PUBLIC "-//W3C//DTD SVG 20010904//EN"
 "http://www.w3.org/TR/2001/REC-SVG-20010904/DTD/svg10.dtd">
<svg version="1.0" xmlns="http://www.w3.org/2000/svg"
 width="891.000000pt" height="891.000000pt" viewBox="0 0 891.000000 891.000000"
 preserveAspectRatio="xMidYMid meet">
<metadata>
Created by potrace 1.11, written by Peter Selinger 2001-2013
</metadata>
<g transform="translate(0.000000,891.000000) scale(0.100000,-0.100000)"
fill="#000000" stroke="none">
<path d="M4155 8904 c-22 -2 -92 -9 -155 -15 -487 -46 -1030 -200 -1500 -427
-440 -213 -836 -496 -1196 -856 -502 -502 -851 -1066 -1074 -1736 -107 -319
-175 -629 -212 -965 -18 -161 -18 -739 0 -900 79 -712 317 -1391 690 -1965
183 -283 354 -494 596 -736 502 -502 1066 -851 1736 -1074 319 -107 629 -175
965 -212 161 -18 739 -18 900 0 712 79 1391 317 1965 690 283 183 494 354 736
596 502 502 851 1066 1074 1736 107 319 175 629 212 965 18 161 18 739 0 900
-79 712 -317 1391 -690 1965 -183 283 -354 494 -596 736 -502 502 -1066 851
-1736 1074 -309 103 -577 164 -910 206 -118 14 -704 28 -805 18z m-644 -1501
c106 -37 179 -85 262 -173 112 -118 167 -260 167 -427 0 -114 -13 -178 -55
-270 -85 -185 -245 -315 -443 -359 -105 -23 -253 -15 -344 18 -206 77 -360
243 -413 447 -21 81 -21 236 0 316 49 190 201 366 376 436 147 58 305 62 450
12z m2044 22 c287 -60 505 -329 505 -625 0 -291 -210 -559 -490 -624 -83 -20
-217 -20 -300 0 -175 41 -340 172 -419 334 -54 111 -74 208 -68 326 9 163 71
298 193 419 151 151 367 214 579 170z m-2461 -1263 c94 -34 165 -81 247 -162
121 -121 140 -172 194 -507 54 -338 100 -448 222 -529 60 -40 198 -93 304
-116 l66 -15 28 34 c44 56 114 83 215 83 119 0 352 19 435 35 263 50 322 136
395 570 38 227 50 266 101 345 74 115 182 201 321 257 75 31 231 42 320 24
134 -28 251 -121 309 -246 32 -67 453 -1722 465 -1829 6 -53 7 -54 56 -77 69
-32 143 -115 164 -184 l18 -55 238 0 238 0 0 -710 0 -710 -955 0 -955 0 0 710
0 710 235 0 c216 0 236 1 241 18 3 9 19 45 36 80 33 67 88 120 151 147 20 8
37 21 37 28 0 53 -141 565 -241 879 -73 231 -91 272 -124 294 -24 16 -27 16
-43 1 -19 -20 -16 -35 52 -212 77 -199 178 -549 239 -826 l23 -105 -48 -34
c-54 -37 -95 -84 -127 -147 l-21 -43 -89 0 c-81 0 -91 2 -127 28 -63 47 -124
119 -154 185 -19 42 -49 160 -91 359 l-63 297 -38 -35 c-139 -125 -340 -197
-645 -231 -152 -17 -152 -17 -164 -45 -16 -38 -92 -104 -137 -119 -106 -35
-568 58 -798 161 -88 40 -195 111 -260 172 -36 34 -55 46 -58 37 -3 -8 -30
-133 -61 -279 -38 -182 -65 -285 -85 -328 -36 -78 -122 -165 -203 -206 l-57
-28 -2 -1057 -3 -1056 -34 -63 c-40 -74 -84 -115 -161 -151 -46 -22 -69 -26
-140 -26 -73 1 -93 5 -143 30 -70 35 -130 97 -165 173 l-27 57 3 1100 3 1100
-42 45 c-92 98 -139 197 -146 310 -4 69 8 135 146 780 84 388 159 730 167 760
43 153 188 279 378 331 97 26 274 22 360 -9z m3404 -4154 c-3 -271 -3 -273
-29 -329 -34 -72 -96 -134 -168 -168 -75 -35 -201 -37 -273 -4 -70 32 -141
103 -174 176 l-29 62 -3 268 -3 267 341 0 341 0 -3 -272z"/>
<path d="M6255 3886 c-31 -13 -85 -69 -85 -87 0 -5 125 -9 305 -9 l306 0 -16
29 c-15 29 -53 62 -88 74 -12 5 -31 -3 -55 -22 -90 -70 -210 -69 -304 3 -30
22 -36 23 -63 12z"/>
</g>
</svg>
